<svg width="200" height="60" viewBox="0 0 200 60" fill="none" xmlns="http://www.w3.org/2000/svg">
<path fill-rule="evenodd" clip-rule="evenodd" d="M190.227 44.8919C195.393 39.697 198 33.998 198 29.3845C198 24.9415 195.002 19.4411 189.087 14.3956C183.27 9.43455 175.008 5.26366 165.411 3.37399C147.57 -0.139111 125.239 4.25056 105.679 25.9426C103.997 27.8077 104.092 30.6626 105.868 32.4383C129.361 55.9287 151.901 60.3179 168.734 56.4795C177.725 54.4294 185.118 50.0302 190.227 44.8919ZM98.7014 27.6152C99.1372 28.1945 96.9908 28.8225 97.4207 29.4231C97.0062 30.0333 99.1683 30.5946 98.7484 31.1836C60.551 84.7554 0 51.2781 0 29.3845C0 7.49996 60.5017 -23.1608 98.7014 27.6152ZM101.459 30.9665C100.973 30.4474 97.9073 29.9585 97.4207 29.4231C97.8752 28.8469 100.911 28.2424 101.369 27.6858C143.249 -23.1892 200 7.48983 200 29.3845C200 51.3076 151.931 84.8456 101.459 30.9665ZM97.4207 29.4231C79.0337 4.75822 55.3307 -0.331722 36.0398 3.37553C26.1884 5.26873 17.5502 9.44908 11.423 14.4267C5.17239 19.5047 2 25.0026 2 29.3845C2 33.7906 5.19742 39.469 11.4554 44.7717C17.5899 49.9697 26.2286 54.4078 36.0692 56.4729C55.3328 60.5156 79.025 55.4492 97.4207 29.4231Z" fill="#DA2E2E"/>
</svg>
