<svg width="158" height="150" viewBox="0 0 158 150" fill="none" xmlns="http://www.w3.org/2000/svg">
<path d="M1 136.735C71.2273 163.416 125.091 141.676 85.5455 117.959C46 94.2423 88.9545 81.7251 151 87.3249" stroke="#DA2E2E" stroke-width="2" stroke-linejoin="round" stroke-dasharray="15 15"/>
<path d="M157 24.0404C157 29.981 154.858 37.4238 151.167 44.7881C147.481 52.1401 142.294 59.3265 136.297 64.7628C134.986 65.9513 133.014 65.9513 131.703 64.7628C125.706 59.3265 120.519 52.1401 116.833 44.7881C113.142 37.4238 111 29.981 111 24.0404C111 11.314 121.299 1 134 1C146.701 1 157 11.314 157 24.0404Z" stroke="#DA2E2E" stroke-width="2"/>
<circle cx="134" cy="27" r="10" stroke="#DA2E2E" stroke-width="2"/>
</svg>
