<svg width="307" height="167" viewBox="0 0 307 167" fill="none" xmlns="http://www.w3.org/2000/svg">
<path d="M71.7222 48.3746C41.8934 -16.2214 47.9772 -13.588 89.9736 56.275C128.776 110.498 134.86 113.131 108.225 64.1753C73.1986 11.5871 79.2824 14.2206 126.477 72.0757C175.568 134.985 181.652 137.618 144.728 79.9761C111.245 23.8231 117.328 26.4565 162.979 87.8765C205.698 140.007 211.782 142.641 181.231 95.7768C144.824 46.3782 150.908 49.0117 199.482 103.677C247.216 156.419 253.299 159.052 217.734 111.578C180.758 63.4923 186.842 66.1258 235.985 119.478C279.927 161.668 286.011 164.301 254.237 127.378" stroke="#D6FC51" stroke-width="2"/>
<path d="M182.222 51.3774C180.949 66.9241 167.314 78.4951 151.767 77.222C136.22 75.9489 124.649 62.3138 125.922 46.7672C127.196 31.2205 140.831 19.6494 156.377 20.9225C171.924 22.1956 183.495 35.8307 182.222 51.3774Z" fill="#F2F2F2" stroke="#282828" stroke-width="3"/>
<path d="M88.8848 142.683C111.148 80.0164 194.236 80.0168 218.885 142.683" stroke="#282828" stroke-width="3"/>
<line x1="277" y1="26.5" x2="307" y2="26.5" stroke="#0000C4" stroke-width="3"/>
<line x1="277" y1="134.5" x2="307" y2="134.5" stroke="#0000C4" stroke-width="3"/>
<line x1="305.5" y1="136" x2="305.5" y2="26" stroke="#0000C4" stroke-width="3"/>
<line x1="30.6001" y1="135.5" x2="0.600098" y2="135.5" stroke="#0000C4" stroke-width="3"/>
<line x1="30.6001" y1="27.5" x2="0.600098" y2="27.5" stroke="#0000C4" stroke-width="3"/>
<line x1="2.1001" y1="26" x2="2.1001" y2="136" stroke="#0000C4" stroke-width="3"/>
</svg>
