<svg width="281" height="167" viewBox="0 0 281 167" fill="none" xmlns="http://www.w3.org/2000/svg">
<path d="M50.7222 48.3746C20.8934 -16.2214 26.9772 -13.588 68.9736 56.275C107.776 110.498 113.86 113.131 87.2251 64.1753C52.1986 11.5871 58.2824 14.2206 105.477 72.0757C154.568 134.985 160.652 137.618 123.728 79.9761C90.2446 23.8231 96.3284 26.4565 141.979 87.8765C184.698 140.007 190.782 142.641 160.231 95.7768C123.824 46.3782 129.908 49.0117 178.482 103.677C226.216 156.419 232.299 159.052 196.734 111.578C159.758 63.4923 165.842 66.1258 214.985 119.478C258.927 161.668 265.011 164.301 233.237 127.378" stroke="#D6FC51" stroke-width="2"/>
<path d="M161.222 51.3774C159.949 66.9241 146.314 78.4951 130.767 77.222C115.22 75.9489 103.649 62.3138 104.922 46.7672C106.196 31.2205 119.831 19.6494 135.377 20.9225C150.924 22.1956 162.495 35.8307 161.222 51.3774Z" fill="#F2F2F2" stroke="#282828" stroke-width="3"/>
<path d="M67.8848 142.683C90.1478 80.0164 173.236 80.0168 197.885 142.683" stroke="#282828" stroke-width="3" stroke-linecap="round"/>
</svg>
