<svg width="48" height="48" viewBox="0 0 48 48" fill="none" xmlns="http://www.w3.org/2000/svg">
<mask id="mask0_537_47" style="mask-type:alpha" maskUnits="userSpaceOnUse" x="0" y="0" width="48" height="48">
<rect width="48" height="48" fill="#D9D9D9"/>
</mask>
<g mask="url(#mask0_537_47)">
<path d="M22.5501 42.2107C18.3704 41.8694 14.8506 40.1542 11.9908 37.065C9.13105 33.9759 7.70117 30.3082 7.70117 26.0618C7.70117 23.4792 8.29284 21.0446 9.47617 18.758C10.6595 16.4714 12.3178 14.5955 14.4512 13.1303L16.8881 15.5672C15.0693 16.6593 13.6512 18.1497 12.6338 20.0384C11.6164 21.9272 11.1077 23.935 11.1077 26.0618C11.1077 29.3712 12.1977 32.2306 14.3778 34.64C16.5579 37.0495 19.282 38.4335 22.5501 38.7922V42.2107ZM25.5501 42.2107V38.7922C28.8595 38.4002 31.5856 37.0078 33.7283 34.615C35.8711 32.2223 36.9425 29.3712 36.9425 26.0618C36.9425 22.5002 35.716 19.475 33.2631 16.9862C30.8102 14.4975 27.803 13.2292 24.2414 13.1813H23.2055L26.2533 16.2411L24.0077 18.4868L16.9392 11.4183L24.0077 4.33789L26.2533 6.58354L23.074 9.76289H24.1218C28.6523 9.76289 32.4914 11.3531 35.6392 14.5335C38.7871 17.714 40.361 21.5567 40.361 26.0618C40.361 30.3082 38.9374 33.9759 36.0903 37.065C33.2432 40.1542 29.7298 41.8694 25.5501 42.2107Z" fill="#282828"/>
</g>
</svg>
