<svg width="169" height="83" viewBox="0 0 169 83" fill="none" xmlns="http://www.w3.org/2000/svg">
<path d="M18.2763 32.2613C52.2371 19.9895 57.2313 19.9895 33.259 32.2613C-14.2724 68.6535 -9.27813 68.6535 48.2417 32.2613C82.2025 -4.13087 87.1967 -4.13087 63.2244 32.2613C37.5099 73.943 42.5041 73.943 78.2071 32.2613C112.168 -9.42043 117.162 -9.42043 93.1898 32.2613C77.8877 43.7925 82.8819 43.7925 108.173 32.2613C142.133 20.7301 147.128 20.7301 123.155 32.2613C75.9803 66.1145 80.9745 66.1145 138.138 32.2613C172.099 -1.59188 177.093 -1.59188 153.121 32.2613C120.046 91.8217 117.187 101.385 160.25 41.8247" stroke="#0000C4" stroke-width="2"/>
</svg>
