<svg width="169" height="83" viewBox="0 0 169 83" fill="none" xmlns="http://www.w3.org/2000/svg">
<path d="M1 43.3692C19.9267 -13.1231 25.4933 -13.1231 17.7 43.3692C10.623 89.4769 16.1896 89.4769 34.4 43.3692C53.3267 -2.73846 58.8933 -2.73846 51.1 43.3692C43.4471 87.8154 49.0138 87.8154 67.8 43.3692C86.7267 -1.07692 92.2933 -1.07692 84.5 43.3692C76.0876 94.8769 81.6542 94.8769 101.2 43.3692C120.127 -8.13846 125.693 -8.13846 117.9 43.3692C110.704 86.9846 116.27 86.9846 134.6 43.3692C153.527 -0.246152 159.093 -0.246152 151.3 43.3692C142.987 92.8 148.554 92.8 168 43.3692" stroke="#0000C4" stroke-width="2"/>
</svg>
