<svg width="169" height="83" viewBox="0 0 169 83" fill="none" xmlns="http://www.w3.org/2000/svg">
<path d="M9.49255 41.0697C-5.16126 21.497 -0.851318 21.497 22.4224 41.0697C60.1 84.8689 64.41 84.8689 35.3522 41.0697C20.6984 -2.72963 25.0084 -2.72963 48.2821 41.0697C74.1135 94.4959 78.4235 94.4959 61.2119 41.0697C46.5581 -12.3566 50.868 -12.3566 74.1418 41.0697C91.6248 67.9103 95.9348 67.9103 87.0716 41.0697C72.4178 14.229 76.7277 14.229 100.001 41.0697C118.549 57.0083 122.858 57.0083 112.931 41.0697C98.2774 25.1311 102.587 25.1311 125.861 41.0697C177.343 95.6434 181.653 95.6434 138.791 41.0697" stroke="#0000C4" stroke-width="2"/>
</svg>
