<svg width="296" height="159" viewBox="0 0 296 159" fill="none" xmlns="http://www.w3.org/2000/svg">
<path d="M1 79.5C12.76 21.6686 22.56 21.6686 30.4 79.5C39.8135 160.545 49.6135 160.545 59.8 79.5C71.56 -1.5454 81.36 -1.5454 89.2 79.5C98.1825 184.167 107.983 184.167 118.6 79.5C130.36 -25.1667 140.16 -25.1667 148 79.5C154.833 157.287 164.633 157.287 177.4 79.5C189.16 1.71272 198.96 1.71272 206.8 79.5C213.265 130.001 223.065 130.001 236.2 79.5C247.96 28.9994 257.76 28.9994 265.6 79.5C274.325 141.404 284.125 141.404 295 79.5" stroke="#DA2E2E" stroke-width="2"/>
</svg>
