<svg width="150" height="83" viewBox="0 0 150 83" fill="none" xmlns="http://www.w3.org/2000/svg">
<path d="M10.6815 41.5C-5.62417 -9.05824 -1.33321 -9.05824 23.5544 41.5C49.289 95.5 53.58 95.5 36.4272 41.5C20.1216 -12.5 24.4126 -12.5 49.3001 41.5C68.0068 68.678 72.2978 68.678 62.173 41.5C45.8674 14.322 50.1583 14.322 75.0459 41.5C105.802 81.4956 110.093 81.4956 87.9188 41.5C71.6131 1.5044 75.9041 1.5044 100.792 41.5C127.599 87.667 131.89 87.667 113.665 41.5C97.3589 -4.66703 101.65 -4.66703 126.537 41.5C151.297 87.1923 155.588 87.1923 139.41 41.5" stroke="#0000C4" stroke-width="2"/>
</svg>
